<?xml version="1.0" encoding="utf-8"?>
<!-- Generator: Adobe Illustrator 28.2.0, SVG Export Plug-In . SVG Version: 6.00 Build 0)  -->
<svg version="1.1" id="Layer_1" xmlns="http://www.w3.org/2000/svg" xmlns:xlink="http://www.w3.org/1999/xlink" x="0px" y="0px"
	 viewBox="0 0 1199.2 321.5" style="enable-background:new 0 0 1199.2 321.5;" xml:space="preserve">
<style type="text/css">
	.st0{fill:url(#SVGID_1_);}
	.st1{opacity:0.1;}
	.st2{fill:#FFFFFF;}
	.st3{fill:url(#SVGID_00000093150994927058898600000009070433014959940480_);}
	.st4{fill:url(#SVGID_00000078740620399495384270000001641146270813274533_);}
	.st5{fill:url(#SVGID_00000015325536488008008700000005542796504867264389_);}
	.st6{fill:url(#SVGID_00000120534448067598795770000017564502110081750429_);}
	.st7{fill:url(#SVGID_00000052801591605425723520000017048835951764206512_);}
	.st8{fill:url(#SVGID_00000042008394868396531520000013709137821355481472_);}
	.st9{fill:url(#SVGID_00000153688287824620286890000011517768965257556108_);}
	.st10{fill:#BDBDBF;}
	.st11{fill:#22C4FA;}
</style>
<g>
	<g>
		<g>
			<g>
				
					<linearGradient id="SVGID_1_" gradientUnits="userSpaceOnUse" x1="64.8512" y1="912.4589" x2="205.8036" y2="981.4113" gradientTransform="matrix(1 0 0 1 0 -756)">
					<stop  offset="0.1163" style="stop-color:#036ECC"/>
					<stop  offset="0.6302" style="stop-color:#0450BA"/>
					<stop  offset="0.9592" style="stop-color:#0442B1"/>
				</linearGradient>
				<path class="st0" d="M194.4,245.8h-89.5c-26.5,0-48.1-21.5-48.1-48.1c0-20.7,13.1-38.4,31.5-45.1c0,0,39.8-9.9,81.3-20.1
					L194.4,245.8z"/>
			</g>
			<g class="st1">
				<path class="st2" d="M194.4,245.8h-89.5c-26.5,0-48.1-21.5-48.1-48.1c0-20.7,13.1-38.4,31.5-45.1c0,0,39.8-9.9,81.3-20.1
					L194.4,245.8z"/>
			</g>
		</g>
		<g>
			<g>
				
					<linearGradient id="SVGID_00000119821567502846364890000018319147735561740688_" gradientUnits="userSpaceOnUse" x1="199.7441" y1="1025.5396" x2="292.6965" y2="867.4443" gradientTransform="matrix(1 0 0 1 0 -756)">
					<stop  offset="0.2651" style="stop-color:#005DD6"/>
					<stop  offset="0.9804" style="stop-color:#0576EE"/>
				</linearGradient>
				<path style="fill:url(#SVGID_00000119821567502846364890000018319147735561740688_);" d="M343.8,200.5c0,25-20.3,45.3-45.2,45.3
					H194.4l-24.8-113.3c44.1-10.8,90-22.1,92.2-22.3c0,0,2.5-0.2,3.7-0.2c22.9,0,41.5,18.6,41.5,41.5c0,1.5-0.1,3-0.2,4.5
					C327.8,159.9,343.8,178.3,343.8,200.5z"/>
			</g>
			<g class="st1">
				<path class="st2" d="M343.8,200.5c0,25-20.3,45.3-45.2,45.3H194.4l-24.8-113.3c44.1-10.8,90-22.1,92.2-22.3c0,0,2.5-0.2,3.7-0.2
					c22.9,0,41.5,18.6,41.5,41.5c0,1.5-0.1,3-0.2,4.5C327.8,159.9,343.8,178.3,343.8,200.5z"/>
			</g>
		</g>
		
			<linearGradient id="SVGID_00000028291416803765666760000007498289280027342258_" gradientUnits="userSpaceOnUse" x1="273.3053" y1="830.035" x2="170.0671" y2="1007.1778" gradientTransform="matrix(1 0 0 1 0 -756)">
			<stop  offset="0" style="stop-color:#0462EA"/>
			<stop  offset="1" style="stop-color:#0056D4"/>
			<stop  offset="1" style="stop-color:#0057D5"/>
			<stop  offset="1" style="stop-color:#0576EE"/>
		</linearGradient>
		<path style="fill:url(#SVGID_00000028291416803765666760000007498289280027342258_);" d="M267.5,170.1
			c-18.8,18.5-73.2,75.7-73.2,75.7s-4.4-82.2-5-109.7c-0.1-2.9,0.2-5.8,0.7-8.7c36.8-9,69.8-17.1,71.7-17.2c0,0,2.5-0.2,3.7-0.2
			c3.2,0,6.2,0.3,9.2,1C287.1,130.1,283.3,154.6,267.5,170.1z"/>
		
			<linearGradient id="SVGID_00000080906600391206762730000016352956326600822144_" gradientUnits="userSpaceOnUse" x1="266.1223" y1="794.8615" x2="152.3445" y2="986.6075" gradientTransform="matrix(1 0 0 1 0 -756)">
			<stop  offset="0.2565" style="stop-color:#07C5FF"/>
			<stop  offset="0.5122" style="stop-color:#049CE9"/>
			<stop  offset="0.7777" style="stop-color:#0177D5"/>
			<stop  offset="0.9186" style="stop-color:#0069CD"/>
		</linearGradient>
		<path style="fill:url(#SVGID_00000080906600391206762730000016352956326600822144_);" d="M194.4,245.8c0,0-20.9-84-27-112.2
			c-3.3-15.3,1.7-31.9,13.7-43.8c19.2-18.9,50-18.7,69,0.5c17,17.2,18.1,43.5,4.8,62.8C239.1,175.9,194.4,245.8,194.4,245.8z"/>
		<g>
			<g>
				
					<linearGradient id="SVGID_00000157993299723345916630000018028364677731461269_" gradientUnits="userSpaceOnUse" x1="196.3212" y1="857.6516" x2="272.7657" y2="904.8896" gradientTransform="matrix(1 0 0 1 0 -756)">
					<stop  offset="0" style="stop-color:#32D5FE;stop-opacity:0"/>
					<stop  offset="0.416" style="stop-color:#3BD8FC"/>
					<stop  offset="1" style="stop-color:#32D5FE;stop-opacity:0"/>
				</linearGradient>
				<path style="fill:url(#SVGID_00000157993299723345916630000018028364677731461269_);" d="M263.5,130.3
					c-1.2-10.4-5.6-20.3-13.6-28.4c-18.9-19.2-49.8-19.4-69-0.5c-8,7.9-12.9,17.9-14.2,28.2c-1.8-14.2,3.3-29.1,14.3-39.9
					c19.2-18.9,50-18.7,69,0.5C260.9,101.3,265.2,116,263.5,130.3z"/>
			</g>
			<g class="st1">
				<path class="st2" d="M263.5,130.3c-1.2-10.4-5.6-20.3-13.6-28.4c-18.9-19.2-49.8-19.4-69-0.5c-8,7.9-12.9,17.9-14.2,28.2
					c-1.8-14.2,3.3-29.1,14.3-39.9c19.2-18.9,50-18.7,69,0.5C260.9,101.3,265.2,116,263.5,130.3z"/>
			</g>
		</g>
		
			<linearGradient id="SVGID_00000168095661969238842880000015452628949063493799_" gradientUnits="userSpaceOnUse" x1="71.2349" y1="891.5551" x2="207.2761" y2="986.2271" gradientTransform="matrix(1 0 0 1 0 -756)">
			<stop  offset="0" style="stop-color:#0752B8"/>
			<stop  offset="0.7443" style="stop-color:#023CA5"/>
			<stop  offset="1" style="stop-color:#00339E"/>
			<stop  offset="1" style="stop-color:#0049B9"/>
			<stop  offset="1" style="stop-color:#0067DE"/>
			<stop  offset="1" style="stop-color:#0072EC"/>
		</linearGradient>
		<path style="fill:url(#SVGID_00000168095661969238842880000015452628949063493799_);" d="M194.4,245.7
			c-1.2-0.5-80.5-32.5-106.6-44.1c-11.5-5.1-20.5-14.9-25-27.2c5.6-10,14.6-17.9,25.5-21.9c0,0,29.5-7.3,64.2-15.9
			c0.9,1.8,1.7,3.8,2.4,5.7C164.1,168.2,193.9,244.6,194.4,245.7z"/>
		
			<linearGradient id="SVGID_00000119823117822961773940000011915040253051530908_" gradientUnits="userSpaceOnUse" x1="80.7792" y1="845.6364" x2="208.9696" y2="1017.6364" gradientTransform="matrix(1 0 0 1 0 -756)">
			<stop  offset="0.2658" style="stop-color:#07C5FF"/>
			<stop  offset="0.5365" style="stop-color:#049CE9"/>
			<stop  offset="0.8175" style="stop-color:#0177D5"/>
			<stop  offset="0.9667" style="stop-color:#0069CD"/>
		</linearGradient>
		<path style="fill:url(#SVGID_00000119823117822961773940000011915040253051530908_);" d="M194.4,245.8c0,0-74.5-44.1-98.8-59.6
			C82.3,177.7,74,162.5,74,145.7c0-26.9,21.8-48.8,48.8-48.8c24.2,0,43.7,17.7,48.1,40.7C176.1,164.8,194.4,245.8,194.4,245.8z"/>
		<g>
			<g>
				
					<linearGradient id="SVGID_00000183957262169829452780000006716482137408682942_" gradientUnits="userSpaceOnUse" x1="70.8026" y1="926.8419" x2="142.1676" y2="850.3974" gradientTransform="matrix(1 0 0 1 0 -756)">
					<stop  offset="0" style="stop-color:#32D5FE;stop-opacity:0"/>
					<stop  offset="0.515" style="stop-color:#3BD8FC"/>
					<stop  offset="1" style="stop-color:#32D5FE;stop-opacity:0"/>
				</linearGradient>
				<path style="fill:url(#SVGID_00000183957262169829452780000006716482137408682942_);" d="M160.7,115.5
					c-8.2-6.4-18.4-10.3-29.7-10.3c-26.9,0-48.8,21.8-48.8,48.8c0,11.2,3.7,21.7,10.1,30C81,175.2,74,161.1,74,145.7
					c0-26.9,21.8-48.8,48.8-48.8C138.2,96.9,151.8,104.2,160.7,115.5z"/>
			</g>
			<g class="st1">
				<path class="st2" d="M160.7,115.5c-8.2-6.4-18.4-10.3-29.7-10.3c-26.9,0-48.8,21.8-48.8,48.8c0,11.2,3.7,21.7,10.1,30
					C81,175.2,74,161.1,74,145.7c0-26.9,21.8-48.8,48.8-48.8C138.2,96.9,151.8,104.2,160.7,115.5z"/>
			</g>
		</g>
	</g>
</g>
<g>
	<path class="st10" d="M373.4,222.8v-74.2h13v12.2c4.1-8.1,11.8-13,22.7-13c8.9,0,18.5,4.4,22.6,16.9c4.5-11.5,14.1-16.9,25-16.9
		c15,0,26.4,9.9,26.4,33.1v41.9h-13v-41.1c0-16.2-7.9-22.1-17.3-22.1c-10.6,0-18,7.3-18,22.1v41.1h-13v-41.1
		c0-16.2-7.9-22.1-17.2-22.1c-10.8,0-18.2,7.3-18.2,22.1v41.1L373.4,222.8L373.4,222.8z"/>
	<path class="st10" d="M575.6,190.3H514c2,13,12.4,21.8,24.5,21.8c10.3,0,18.3-5.5,21.4-12.7h13.7c-5.1,14.1-18.3,24-35.2,24
		c-20.8,0-37.6-16.9-37.6-37.8s16.7-37.9,37.6-37.9s37.7,16.7,37.7,36.5C576,186.1,575.9,188.6,575.6,190.3z M562.9,179.4
		c-1.8-11.6-12.1-20.2-24.6-20.2c-11.7,0-21.5,8.1-24.2,20.2H562.9z"/>
	<path class="st10" d="M591,185.6c0-21.1,14.8-37.9,36-37.9c11.5,0,21.5,6,27.2,15v-56.5h13v116.5h-13v-14.1
		c-5.7,8.9-15.7,14.9-27.2,14.9C605.9,223.5,591,206.8,591,185.6z M654.2,185.6c0-14.9-10.8-26.5-25.2-26.5s-25,11.6-25,26.5
		s10.6,26.5,25,26.5S654.2,200.5,654.2,185.6z"/>
	<path class="st10" d="M688.3,127.3c0-4.5,3.8-8.2,8.3-8.2c4.4,0,8.2,3.6,8.2,8.2c0,4.7-3.8,8.4-8.2,8.4
		C692,135.7,688.3,131.9,688.3,127.3z M690,222.8v-74.2h13v74.2H690z"/>
	<path class="st11" d="M721.9,185.6c0-21.1,16.7-37.9,37.4-37.9c17.2,0,31.5,11.4,36.1,26.9h-13.8c-3.8-9.3-12.2-14.7-22.3-14.7
		c-13.7,0-24.5,11.2-24.5,25.6c0,14.3,10.8,25.6,24.5,25.6c10,0,18.5-5.7,22.6-14.7h13.7c-4.5,15.6-18.9,26.9-36.2,26.9
		C738.6,223.5,721.9,206.6,721.9,185.6z"/>
	<path class="st11" d="M812.6,222.8V106.3h13v116.5H812.6z"/>
	<path class="st11" d="M844.5,185.6c0-21.1,16.7-37.9,37.4-37.9c21,0,37.7,16.7,37.7,37.9c0,21-16.7,37.9-37.7,37.9
		C861.2,223.5,844.5,206.6,844.5,185.6z M906.6,185.6c0-14.3-11.1-25.3-24.8-25.3s-24.5,11.1-24.5,25.3c0,14.1,10.8,25.3,24.5,25.3
		S906.6,199.8,906.6,185.6z"/>
	<path class="st11" d="M937.5,187.4v-38.9h13v37.3c0,18.3,9,25.9,20.4,25.9c13.1,0,21.4-8.9,21.4-25.9v-37.3h13v74.2h-13v-13.4
		c-4.8,9.2-13.7,14.1-25,14.1C950.2,223.5,937.5,212,937.5,187.4z"/>
	<path class="st11" d="M1024.1,185.6c0-21.1,14.8-37.9,36-37.9c11.5,0,21.6,6,27.2,15v-56.5h13v116.5h-13v-14.1
		c-5.7,8.9-15.7,14.9-27.2,14.9C1039,223.5,1024.1,206.8,1024.1,185.6z M1087.3,185.6c0-14.9-10.8-26.5-25.2-26.5
		c-14.4,0-25,11.6-25,26.5s10.6,26.5,25,26.5C1076.5,212.1,1087.3,200.5,1087.3,185.6z"/>
	<path class="st11" d="M1119.5,215.6c0-4.4,3.6-8,8.3-8c4.5,0,8.2,3.6,8.2,8c0,4.7-3.6,8.3-8.2,8.3
		C1123.1,223.9,1119.5,220.3,1119.5,215.6z"/>
</g>
</svg>
