<?xml version="1.0" encoding="utf-8"?>
<!-- Generator: Adobe Illustrator 28.2.0, SVG Export Plug-In . SVG Version: 6.00 Build 0)  -->
<svg version="1.1" id="Layer_1" xmlns="http://www.w3.org/2000/svg" xmlns:xlink="http://www.w3.org/1999/xlink" x="0px" y="0px"
	 viewBox="0 0 321.5 321.5" style="enable-background:new 0 0 321.5 321.5;" xml:space="preserve">
<style type="text/css">
	.st0{fill:url(#SVGID_1_);}
	.st1{opacity:0.1;}
	.st2{fill:#FFFFFF;}
	.st3{fill:url(#SVGID_00000132784974320543519990000008709944753596844949_);}
	.st4{fill:url(#SVGID_00000135670061164698052460000005991482641369625510_);}
	.st5{fill:url(#SVGID_00000100350277747207429870000005311017258170442922_);}
	.st6{fill:url(#SVGID_00000029015837426902332950000016949960633846288770_);}
	.st7{fill:url(#SVGID_00000021806226310224015690000010252522303996217260_);}
	.st8{fill:url(#SVGID_00000085247978631963463650000006865378677788142519_);}
	.st9{fill:url(#SVGID_00000051346940009363770350000014563541864252181926_);}
</style>
<g>
	<g>
		<g>
			
				<linearGradient id="SVGID_1_" gradientUnits="userSpaceOnUse" x1="25.2965" y1="912.4811" x2="166.2489" y2="981.4335" gradientTransform="matrix(1 0 0 1 0 -756)">
				<stop  offset="0.1163" style="stop-color:#036ECC"/>
				<stop  offset="0.6302" style="stop-color:#0450BA"/>
				<stop  offset="0.9592" style="stop-color:#0442B1"/>
			</linearGradient>
			<path class="st0" d="M154.8,245.8H65.3c-26.5,0-48.1-21.5-48.1-48.1c0-20.7,13.1-38.4,31.5-45.1c0,0,39.8-9.9,81.3-20.1
				L154.8,245.8z"/>
		</g>
		<g class="st1">
			<path class="st2" d="M154.8,245.8H65.3c-26.5,0-48.1-21.5-48.1-48.1c0-20.7,13.1-38.4,31.5-45.1c0,0,39.8-9.9,81.3-20.1
				L154.8,245.8z"/>
		</g>
	</g>
	<g>
		<g>
			
				<linearGradient id="SVGID_00000019677175129084894820000010948738008927696560_" gradientUnits="userSpaceOnUse" x1="160.1367" y1="1025.5022" x2="253.0891" y2="867.4069" gradientTransform="matrix(1 0 0 1 0 -756)">
				<stop  offset="0.2651" style="stop-color:#005DD6"/>
				<stop  offset="0.9804" style="stop-color:#0576EE"/>
			</linearGradient>
			<path style="fill:url(#SVGID_00000019677175129084894820000010948738008927696560_);" d="M304.2,200.5c0,25-20.3,45.3-45.2,45.3
				H154.8L130,132.4c44.1-10.8,90-22.1,92.2-22.3c0,0,2.5-0.2,3.7-0.2c22.9,0,41.5,18.6,41.5,41.5c0,1.5-0.1,3-0.2,4.5
				C288.3,159.9,304.2,178.3,304.2,200.5z"/>
		</g>
		<g class="st1">
			<path class="st2" d="M304.2,200.5c0,25-20.3,45.3-45.2,45.3H154.8L130,132.4c44.1-10.8,90-22.1,92.2-22.3c0,0,2.5-0.2,3.7-0.2
				c22.9,0,41.5,18.6,41.5,41.5c0,1.5-0.1,3-0.2,4.5C288.3,159.9,304.2,178.3,304.2,200.5z"/>
		</g>
	</g>
	
		<linearGradient id="SVGID_00000132772941642751191460000007549195933428420526_" gradientUnits="userSpaceOnUse" x1="233.7763" y1="830.0436" x2="130.5382" y2="1007.1864" gradientTransform="matrix(1 0 0 1 0 -756)">
		<stop  offset="0" style="stop-color:#0462EA"/>
		<stop  offset="1" style="stop-color:#0056D4"/>
		<stop  offset="1" style="stop-color:#0057D5"/>
		<stop  offset="1" style="stop-color:#0576EE"/>
	</linearGradient>
	<path style="fill:url(#SVGID_00000132772941642751191460000007549195933428420526_);" d="M228,170.1
		c-18.8,18.5-73.2,75.7-73.2,75.7s-4.4-82.2-5-109.7c-0.1-2.9,0.2-5.8,0.7-8.7c36.8-9,69.8-17.1,71.7-17.2c0,0,2.5-0.2,3.7-0.2
		c3.2,0,6.2,0.3,9.2,1C247.5,130.1,243.7,154.6,228,170.1z"/>
	
		<linearGradient id="SVGID_00000139980228862606755720000006340463133095754902_" gradientUnits="userSpaceOnUse" x1="226.5369" y1="794.8369" x2="112.7591" y2="986.5829" gradientTransform="matrix(1 0 0 1 0 -756)">
		<stop  offset="0.2565" style="stop-color:#07C5FF"/>
		<stop  offset="0.5122" style="stop-color:#049CE9"/>
		<stop  offset="0.7777" style="stop-color:#0177D5"/>
		<stop  offset="0.9186" style="stop-color:#0069CD"/>
	</linearGradient>
	<path style="fill:url(#SVGID_00000139980228862606755720000006340463133095754902_);" d="M154.8,245.8c0,0-20.9-84-27-112.2
		c-3.3-15.3,1.7-31.9,13.7-43.8c19.2-18.9,50-18.7,69,0.5c17,17.2,18.1,43.5,4.8,62.8C199.6,175.9,154.8,245.8,154.8,245.8z"/>
	<g>
		<g>
			
				<linearGradient id="SVGID_00000054236491056245952930000004099109569827032234_" gradientUnits="userSpaceOnUse" x1="156.7618" y1="857.6766" x2="233.2063" y2="904.9147" gradientTransform="matrix(1 0 0 1 0 -756)">
				<stop  offset="0" style="stop-color:#32D5FE;stop-opacity:0"/>
				<stop  offset="0.416" style="stop-color:#3BD8FC"/>
				<stop  offset="1" style="stop-color:#32D5FE;stop-opacity:0"/>
			</linearGradient>
			<path style="fill:url(#SVGID_00000054236491056245952930000004099109569827032234_);" d="M223.9,130.3
				c-1.2-10.4-5.6-20.3-13.6-28.4c-18.9-19.2-49.8-19.4-69-0.5c-8,7.9-12.9,17.9-14.2,28.2c-1.8-14.2,3.3-29.1,14.3-39.9
				c19.2-18.9,50-18.7,69,0.5C221.3,101.3,225.7,116,223.9,130.3z"/>
		</g>
		<g class="st1">
			<path class="st2" d="M223.9,130.3c-1.2-10.4-5.6-20.3-13.6-28.4c-18.9-19.2-49.8-19.4-69-0.5c-8,7.9-12.9,17.9-14.2,28.2
				c-1.8-14.2,3.3-29.1,14.3-39.9c19.2-18.9,50-18.7,69,0.5C221.3,101.3,225.7,116,223.9,130.3z"/>
		</g>
	</g>
	
		<linearGradient id="SVGID_00000167367966979954405910000008232818393745022633_" gradientUnits="userSpaceOnUse" x1="31.6727" y1="891.5815" x2="166.7926" y2="985.6122" gradientTransform="matrix(1 0 0 1 0 -756)">
		<stop  offset="0" style="stop-color:#0752B8"/>
		<stop  offset="0.7443" style="stop-color:#023CA5"/>
		<stop  offset="1" style="stop-color:#00339E"/>
		<stop  offset="1" style="stop-color:#0049B9"/>
		<stop  offset="1" style="stop-color:#0067DE"/>
		<stop  offset="1" style="stop-color:#0072EC"/>
	</linearGradient>
	<path style="fill:url(#SVGID_00000167367966979954405910000008232818393745022633_);" d="M154.8,245.7
		c-1.2-0.5-80.5-32.5-106.6-44.1c-11.5-5.1-20.5-14.9-25-27.2c5.6-10,14.6-17.9,25.5-21.9c0,0,29.5-7.3,64.2-15.9
		c0.9,1.8,1.7,3.8,2.4,5.7C124.5,168.2,154.4,244.6,154.8,245.7z"/>
	
		<linearGradient id="SVGID_00000005254345536337169820000017730120873716244385_" gradientUnits="userSpaceOnUse" x1="41.2384" y1="845.6341" x2="169.4289" y2="1017.6341" gradientTransform="matrix(1 0 0 1 0 -756)">
		<stop  offset="0.2658" style="stop-color:#07C5FF"/>
		<stop  offset="0.5365" style="stop-color:#049CE9"/>
		<stop  offset="0.8175" style="stop-color:#0177D5"/>
		<stop  offset="0.9667" style="stop-color:#0069CD"/>
	</linearGradient>
	<path style="fill:url(#SVGID_00000005254345536337169820000017730120873716244385_);" d="M154.8,245.8c0,0-74.5-44.1-98.8-59.6
		c-13.2-8.4-21.5-23.6-21.5-40.5c0-26.9,21.8-48.8,48.8-48.8c24.2,0,43.7,17.7,48.1,40.7C136.5,164.8,154.8,245.8,154.8,245.8z"/>
	<g>
		<g>
			
				<linearGradient id="SVGID_00000012442312226182374480000006193083147024428213_" gradientUnits="userSpaceOnUse" x1="31.3071" y1="926.8871" x2="102.6721" y2="850.4426" gradientTransform="matrix(1 0 0 1 0 -756)">
				<stop  offset="0" style="stop-color:#32D5FE;stop-opacity:0"/>
				<stop  offset="0.515" style="stop-color:#3BD8FC"/>
				<stop  offset="1" style="stop-color:#32D5FE;stop-opacity:0"/>
			</linearGradient>
			<path style="fill:url(#SVGID_00000012442312226182374480000006193083147024428213_);" d="M121.2,115.5
				c-8.2-6.4-18.4-10.3-29.7-10.3c-26.9,0-48.8,21.8-48.8,48.8c0,11.2,3.7,21.7,10.1,30c-11.3-8.7-18.3-22.8-18.3-38.2
				c0-26.9,21.8-48.8,48.8-48.8C98.7,96.9,112.3,104.2,121.2,115.5z"/>
		</g>
		<g class="st1">
			<path class="st2" d="M121.2,115.5c-8.2-6.4-18.4-10.3-29.7-10.3c-26.9,0-48.8,21.8-48.8,48.8c0,11.2,3.7,21.7,10.1,30
				c-11.3-8.7-18.3-22.8-18.3-38.2c0-26.9,21.8-48.8,48.8-48.8C98.7,96.9,112.3,104.2,121.2,115.5z"/>
		</g>
	</g>
</g>
</svg>
