<svg width="16" height="16" viewBox="0 0 16 16" fill="none" xmlns="http://www.w3.org/2000/svg">
<path d="M2 4H3.33332H13.9999" stroke="#667085" stroke-width="1.66678" stroke-linecap="round" stroke-linejoin="round"/>
<path d="M5.33348 3.99965V2.66633C5.33348 2.31271 5.47395 1.97357 5.724 1.72353C5.97404 1.47348 6.31318 1.33301 6.6668 1.33301H9.33344C9.68706 1.33301 10.0262 1.47348 10.2762 1.72353C10.5263 1.97357 10.6668 2.31271 10.6668 2.66633V3.99965M12.6667 3.99965V13.3329C12.6667 13.6865 12.5263 14.0256 12.2762 14.2757C12.0262 14.5257 11.687 14.6662 11.3334 14.6662H4.66682C4.3132 14.6662 3.97406 14.5257 3.72402 14.2757C3.47397 14.0256 3.3335 13.6865 3.3335 13.3329V3.99965H12.6667Z" stroke="#667085" stroke-width="1.66678" stroke-linecap="round" stroke-linejoin="round"/>
<path d="M9.33301 7.33301V11.3335" stroke="#667085" stroke-width="1.66678" stroke-linecap="round" stroke-linejoin="round"/>
<path d="M6.6665 7.33301V11.3335" stroke="#667085" stroke-width="1.66678" stroke-linecap="round" stroke-linejoin="round"/>
</svg>
