<svg width="22" height="22" viewBox="0 0 22 22" fill="none" xmlns="http://www.w3.org/2000/svg">
<path d="M10.0833 6.41671H11.9166V8.25004H10.0833V6.41671ZM10.0833 10.0834H11.9166V15.5834H10.0833V10.0834ZM11 1.83337C5.93998 1.83337 1.83331 5.94004 1.83331 11C1.83331 16.06 5.93998 20.1667 11 20.1667C16.06 20.1667 20.1666 16.06 20.1666 11C20.1666 5.94004 16.06 1.83337 11 1.83337ZM11 18.3334C6.95748 18.3334 3.66665 15.0425 3.66665 11C3.66665 6.95754 6.95748 3.66671 11 3.66671C15.0425 3.66671 18.3333 6.95754 18.3333 11C18.3333 15.0425 15.0425 18.3334 11 18.3334Z" fill="#0288D1"/>
</svg>
