<svg xmlns="http://www.w3.org/2000/svg" width="59" height="21" viewBox="0 0 59 21" fill="none">
<path d="M0.373333 6.82667H12.4V9.54667H0.373333V6.82667ZM8.42667 0.293332V3.06666C8.23111 3.06666 8.03556 3.06666 7.84 3.06666C7.66222 3.06666 7.47556 3.06666 7.28 3.06666C6.55111 3.06666 6.07111 3.26222 5.84 3.65333C5.60889 4.04444 5.49333 4.56889 5.49333 5.22667V20H2.26667V5.22667C2.26667 4.01778 2.45333 3.04889 2.82667 2.32C3.2 1.57333 3.72444 1.03111 4.4 0.693331C5.07556 0.337776 5.85778 0.159999 6.74667 0.159999C6.99556 0.159999 7.26222 0.168887 7.54667 0.186665C7.84889 0.204442 8.14222 0.239998 8.42667 0.293332ZM14 20H10.7467V0.159999H14V20ZM23.2765 20.3467C21.9787 20.3467 20.8231 20.0533 19.8098 19.4667C18.8142 18.8622 18.032 18.0444 17.4631 17.0133C16.8942 15.9644 16.6098 14.7644 16.6098 13.4133C16.6098 12.0444 16.8853 10.8356 17.4365 9.78667C17.9876 8.73778 18.7609 7.92 19.7565 7.33333C20.752 6.72889 21.8898 6.42667 23.1698 6.42667C24.5031 6.42667 25.6498 6.71111 26.6098 7.28C27.5698 7.83111 28.3076 8.60444 28.8231 9.6C29.3565 10.5956 29.6231 11.7867 29.6231 13.1733V14.16L18.3165 14.1867L18.3698 12.1067H26.3965C26.3965 11.2 26.1031 10.4711 25.5165 9.92C24.9476 9.36889 24.1742 9.09333 23.1965 9.09333C22.432 9.09333 21.7831 9.25333 21.2498 9.57333C20.7342 9.89333 20.3431 10.3733 20.0765 11.0133C19.8098 11.6533 19.6765 12.4356 19.6765 13.36C19.6765 14.7822 19.9787 15.8578 20.5831 16.5867C21.2053 17.3156 22.1209 17.68 23.3298 17.68C24.2187 17.68 24.9476 17.5111 25.5165 17.1733C26.1031 16.8356 26.4853 16.3556 26.6631 15.7333H29.6765C29.392 17.1733 28.6809 18.3022 27.5431 19.12C26.4231 19.9378 25.0009 20.3467 23.2765 20.3467ZM33.9213 20H30.2146L34.7479 13.5467L30.2146 6.82667H34.0013L36.9079 11.3067L39.7079 6.82667H43.3613L38.8813 13.52L43.2279 20H39.4946L36.6679 15.6533L33.9213 20Z" fill="#494949"/>
<path d="M45.2998 20V6.82667H48.5531V20H45.2998ZM46.8998 4.18666C46.3487 4.18666 45.8776 4 45.4865 3.62667C45.1131 3.23555 44.9265 2.76444 44.9265 2.21333C44.9265 1.66222 45.1131 1.2 45.4865 0.826665C45.8776 0.453332 46.3487 0.266665 46.8998 0.266665C47.4509 0.266665 47.9131 0.453332 48.2865 0.826665C48.6776 1.2 48.8731 1.66222 48.8731 2.21333C48.8731 2.76444 48.6776 3.23555 48.2865 3.62667C47.9131 4 47.4509 4.18666 46.8998 4.18666ZM50.6077 6.82667H58.9277V9.54667H50.6077V6.82667ZM56.3944 20H53.141V2.72H56.3944V20Z" fill="#A093D6"/>
</svg>