<svg width="63" height="15" viewBox="0 0 63 15" fill="none" xmlns="http://www.w3.org/2000/svg">
<path d="M8.7 12V8.472C8.7 7.976 8.596 7.58 8.388 7.284C8.188 6.98 7.896 6.828 7.512 6.828C7.032 6.828 6.64 7.016 6.336 7.392C6.04 7.768 5.884 8.28 5.868 8.928V12H4.836V8.472C4.836 7.968 4.732 7.568 4.524 7.272C4.324 6.976 4.036 6.828 3.66 6.828C3.164 6.828 2.764 7.028 2.46 7.428C2.156 7.82 2.004 8.352 2.004 9.024V12H0.972V6H2.004V6.924C2.388 6.228 2.992 5.88 3.816 5.88C4.728 5.88 5.344 6.308 5.664 7.164C5.824 6.772 6.08 6.46 6.432 6.228C6.784 5.996 7.184 5.88 7.632 5.88C8.28 5.88 8.792 6.1 9.168 6.54C9.544 6.98 9.732 7.572 9.732 8.316V12H8.7ZM14.1452 12.12C13.2732 12.12 12.5492 11.824 11.9732 11.232C11.4052 10.64 11.1212 9.896 11.1212 9C11.1212 8.096 11.3972 7.352 11.9492 6.768C12.5092 6.176 13.2492 5.88 14.1692 5.88C15.0972 5.88 15.8252 6.208 16.3532 6.864C16.8812 7.52 17.1132 8.324 17.0492 9.276H12.1652C12.1812 9.82 12.3812 10.276 12.7652 10.644C13.1492 11.004 13.6132 11.184 14.1572 11.184C14.9732 11.184 15.5532 10.848 15.8972 10.176H16.9532C16.8012 10.736 16.4772 11.2 15.9812 11.568C15.4852 11.936 14.8732 12.12 14.1452 12.12ZM15.3212 7.224C14.9932 6.936 14.5972 6.792 14.1332 6.792C13.6692 6.792 13.2532 6.932 12.8852 7.212C12.5252 7.492 12.3012 7.908 12.2132 8.46H15.9572C15.8612 7.916 15.6492 7.504 15.3212 7.224ZM21.0104 12.12C20.1784 12.12 19.4784 11.816 18.9104 11.208C18.3504 10.6 18.0704 9.864 18.0704 9C18.0704 8.136 18.3504 7.4 18.9104 6.792C19.4784 6.184 20.1784 5.88 21.0104 5.88C21.4504 5.88 21.8584 5.98 22.2344 6.18C22.6184 6.372 22.9144 6.62 23.1224 6.924V3H24.1544V12H23.1224V11.076C22.9144 11.38 22.6184 11.632 22.2344 11.832C21.8584 12.024 21.4504 12.12 21.0104 12.12ZM21.1664 11.172C21.7584 11.172 22.2464 10.964 22.6304 10.548C23.0144 10.132 23.2064 9.616 23.2064 9C23.2064 8.384 23.0144 7.868 22.6304 7.452C22.2464 7.036 21.7584 6.828 21.1664 6.828C20.5664 6.828 20.0744 7.036 19.6904 7.452C19.3064 7.868 19.1144 8.384 19.1144 9C19.1144 9.616 19.3064 10.132 19.6904 10.548C20.0744 10.964 20.5664 11.172 21.1664 11.172ZM27.141 4.188C27.005 4.324 26.833 4.392 26.625 4.392C26.417 4.392 26.241 4.324 26.097 4.188C25.953 4.044 25.881 3.868 25.881 3.66C25.881 3.46 25.953 3.288 26.097 3.144C26.241 3 26.417 2.928 26.625 2.928C26.833 2.928 27.005 3 27.141 3.144C27.277 3.288 27.345 3.46 27.345 3.66C27.345 3.868 27.277 4.044 27.141 4.188ZM26.097 12V6H27.129V12H26.097Z" fill="#FFFDFD"/>
<path d="M31.7493 12.12C30.8453 12.12 30.0973 11.82 29.5053 11.22C28.9133 10.612 28.6173 9.872 28.6173 9C28.6173 8.128 28.9133 7.392 29.5053 6.792C30.0973 6.184 30.8453 5.88 31.7493 5.88C32.4933 5.88 33.1373 6.088 33.6813 6.504C34.2253 6.912 34.5893 7.448 34.7733 8.112H33.6693C33.5253 7.72 33.2853 7.408 32.9493 7.176C32.6133 6.944 32.2133 6.828 31.7493 6.828C31.1333 6.828 30.6293 7.036 30.2373 7.452C29.8533 7.868 29.6613 8.384 29.6613 9C29.6613 9.616 29.8533 10.132 30.2373 10.548C30.6293 10.964 31.1333 11.172 31.7493 11.172C32.2133 11.172 32.6133 11.056 32.9493 10.824C33.2853 10.592 33.5253 10.28 33.6693 9.888H34.7733C34.5973 10.552 34.2373 11.092 33.6933 11.508C33.1493 11.916 32.5013 12.12 31.7493 12.12ZM36.14 12V3H37.172V12H36.14ZM41.7923 12.12C40.8883 12.12 40.1363 11.82 39.5363 11.22C38.9443 10.612 38.6483 9.872 38.6483 9C38.6483 8.128 38.9443 7.392 39.5363 6.792C40.1363 6.184 40.8883 5.88 41.7923 5.88C42.6883 5.88 43.4323 6.184 44.0243 6.792C44.6243 7.392 44.9243 8.128 44.9243 9C44.9243 9.872 44.6243 10.612 44.0243 11.22C43.4323 11.82 42.6883 12.12 41.7923 12.12ZM40.2803 10.536C40.6723 10.952 41.1763 11.16 41.7923 11.16C42.4083 11.16 42.9083 10.952 43.2923 10.536C43.6763 10.12 43.8683 9.608 43.8683 9C43.8683 8.392 43.6763 7.88 43.2923 7.464C42.9083 7.048 42.4083 6.84 41.7923 6.84C41.1763 6.84 40.6723 7.048 40.2803 7.464C39.8963 7.88 39.7043 8.392 39.7043 9C39.7043 9.608 39.8963 10.12 40.2803 10.536ZM48.5296 12.12C47.8736 12.12 47.3416 11.9 46.9336 11.46C46.5256 11.012 46.3216 10.42 46.3216 9.684V6H47.3536V9.528C47.3536 10.032 47.4736 10.432 47.7136 10.728C47.9616 11.024 48.2936 11.172 48.7096 11.172C49.1896 11.172 49.5856 10.976 49.8976 10.584C50.2176 10.184 50.3776 9.648 50.3776 8.976V6H51.4096V12H50.3776V11.076C49.9856 11.772 49.3696 12.12 48.5296 12.12ZM55.8268 12.12C54.9948 12.12 54.2948 11.816 53.7268 11.208C53.1668 10.6 52.8868 9.864 52.8868 9C52.8868 8.136 53.1668 7.4 53.7268 6.792C54.2948 6.184 54.9948 5.88 55.8268 5.88C56.2668 5.88 56.6748 5.98 57.0508 6.18C57.4348 6.372 57.7308 6.62 57.9388 6.924V3H58.9708V12H57.9388V11.076C57.7308 11.38 57.4348 11.632 57.0508 11.832C56.6748 12.024 56.2668 12.12 55.8268 12.12ZM55.9828 11.172C56.5748 11.172 57.0628 10.964 57.4468 10.548C57.8308 10.132 58.0228 9.616 58.0228 9C58.0228 8.384 57.8308 7.868 57.4468 7.452C57.0628 7.036 56.5748 6.828 55.9828 6.828C55.3828 6.828 54.8908 7.036 54.5068 7.452C54.1228 7.868 53.9308 8.384 53.9308 9C53.9308 9.616 54.1228 10.132 54.5068 10.548C54.8908 10.964 55.3828 11.172 55.9828 11.172ZM62.0774 11.832C61.9094 12.008 61.7014 12.096 61.4534 12.096C61.2054 12.096 60.9934 12.008 60.8174 11.832C60.6494 11.656 60.5654 11.444 60.5654 11.196C60.5654 10.956 60.6534 10.748 60.8294 10.572C61.0054 10.388 61.2134 10.296 61.4534 10.296C61.6934 10.296 61.9014 10.388 62.0774 10.572C62.2534 10.748 62.3414 10.956 62.3414 11.196C62.3414 11.444 62.2534 11.656 62.0774 11.832Z" fill="#2AAEAD"/>
</svg>
