<svg xmlns="http://www.w3.org/2000/svg" width="245" height="70" viewBox="0 0 245 70" fill="none">
    <path d="M8.7521 50V36.7536C8.7521 32.9689 10.9756 31.1712 13.7195 31.1712C16.4634 31.1712 18.2138 32.9216 18.2138 36.1859V50H23.9855V36.7536C23.9855 32.9216 26.1144 31.1239 28.9056 31.1239C31.6495 31.1239 33.4472 32.8743 33.4472 36.2332V50H39.1716V34.7193C39.1716 29.3261 36.0492 25.9199 30.3721 25.9199C26.824 25.9199 24.0801 27.6703 22.8974 30.3669C21.6674 27.6703 19.2073 25.9199 15.6592 25.9199C12.3002 25.9199 9.93481 27.4338 8.7521 29.3734L8.27901 26.6295H2.98044V50H8.7521ZM55.2927 50.615C61.3955 50.615 65.6533 47.54 66.6468 42.4306H61.3009C60.6386 44.6541 58.557 45.8841 55.3873 45.8841C51.5553 45.8841 49.3791 43.8026 48.9534 39.6867L66.5522 39.6394V37.889C66.5522 30.6035 62.1052 25.9199 55.1035 25.9199C48.2437 25.9199 43.4655 30.9819 43.4655 38.3148C43.4655 45.553 48.3383 50.615 55.2927 50.615ZM55.1508 30.6508C58.6043 30.6508 60.8278 32.7797 60.8278 35.9966H49.0953C49.663 32.4958 51.7446 30.6508 55.1508 30.6508ZM80.7751 50.615C84.3232 50.615 87.351 49.0538 88.7702 46.3572L89.1487 50H94.4473V14.8024H88.7229V29.61C87.2563 27.2919 84.3705 25.9199 81.1062 25.9199C74.0572 25.9199 69.7995 31.1239 69.7995 38.4094C69.7995 45.6476 74.0099 50.615 80.7751 50.615ZM82.0524 45.3164C78.0312 45.3164 75.5711 42.3833 75.5711 38.2201C75.5711 34.057 78.0312 31.0765 82.0524 31.0765C86.0736 31.0765 88.6756 34.0097 88.6756 38.2201C88.6756 42.4306 86.0736 45.3164 82.0524 45.3164ZM103.348 21.946C105.24 21.946 106.801 20.3848 106.801 18.4451C106.801 16.5055 105.24 14.9916 103.348 14.9916C101.361 14.9916 99.7998 16.5055 99.7998 18.4451C99.7998 20.3848 101.361 21.946 103.348 21.946ZM100.462 50H106.234V26.6295H100.462V50Z" fill="#494949" />
    <path d="M110.825 38.2675C110.825 45.6949 115.461 50.615 122.557 50.615C128.66 50.615 133.202 46.8776 133.912 41.4371H128.093C127.478 43.9918 125.443 45.4111 122.557 45.4111C118.867 45.4111 116.597 42.6672 116.597 38.2675C116.597 33.8678 119.057 31.0765 122.747 31.0765C125.491 31.0765 127.43 32.4485 128.093 35.0978H133.864C133.249 29.4681 128.897 25.9199 122.51 25.9199C115.603 25.9199 110.825 31.0292 110.825 38.2675ZM144.026 50V14.8024H138.302V50H144.026ZM148.709 38.2675C148.709 45.553 153.96 50.5677 161.198 50.5677C168.436 50.5677 173.688 45.553 173.688 38.2675C173.688 30.9819 168.436 25.9672 161.198 25.9672C153.96 25.9672 148.709 30.9819 148.709 38.2675ZM154.48 38.2675C154.48 34.0097 157.224 31.1239 161.198 31.1239C165.172 31.1239 167.916 34.0097 167.916 38.2675C167.916 42.5252 165.172 45.4111 161.198 45.4111C157.224 45.4111 154.48 42.5252 154.48 38.2675ZM193.557 26.6295V38.8825C193.557 43.3295 191.806 45.4584 188.163 45.4584C184.946 45.4584 183.196 43.6606 183.196 39.2136V26.6295H177.424V41.2479C177.424 46.9722 180.594 50.615 185.987 50.615C189.11 50.615 192.137 49.1011 193.557 46.8776L193.982 50H199.328V26.6295H193.557ZM214.431 50.615C217.979 50.615 221.007 49.0538 222.426 46.3572L222.805 50H228.103V14.8024H222.379V29.61C220.912 27.2919 218.027 25.9199 214.762 25.9199C207.713 25.9199 203.456 31.1239 203.456 38.4094C203.456 45.6476 207.666 50.615 214.431 50.615ZM215.709 45.3164C211.687 45.3164 209.227 42.3833 209.227 38.2201C209.227 34.057 211.687 31.0765 215.709 31.0765C219.73 31.0765 222.332 34.0097 222.332 38.2201C222.332 42.4306 219.73 45.3164 215.709 45.3164ZM237.998 50.5677C240.079 50.5677 241.83 48.8646 241.83 46.8303C241.83 44.7487 240.079 43.0456 237.998 43.0456C235.916 43.0456 234.166 44.7487 234.166 46.8303C234.166 48.8646 235.916 50.5677 237.998 50.5677Z" fill="#2AAEAD" />
    <path d="M5.03048 68.0213V65.3484H8.28689V68.0213H8.66536V62.4231H8.28689V65.0014H5.03048V62.4231H4.65201V68.0213H5.03048ZM19.6761 65.2222C19.6761 63.527 18.5801 62.3285 17.0268 62.3285C15.4814 62.3285 14.3854 63.527 14.3854 65.2222C14.3854 66.9174 15.4735 68.1159 17.0268 68.1159C18.5801 68.1159 19.6761 66.9174 19.6761 65.2222ZM19.2897 65.2222C19.2897 66.7124 18.3593 67.7532 17.0268 67.7532C15.7022 67.7532 14.7717 66.7124 14.7717 65.2222C14.7717 63.732 15.7022 62.6912 17.0268 62.6912C18.3593 62.6912 19.2897 63.732 19.2897 65.2222ZM25.0436 63.8345C25.0436 64.5599 25.493 65.0409 26.3367 65.2537L27.3065 65.4982C27.9688 65.6638 28.2921 66.0343 28.2921 66.5863C28.2921 67.3038 27.7165 67.7611 26.8255 67.7611C25.9897 67.7611 25.4142 67.3353 25.3826 66.6967H24.9805C25.0672 67.5719 25.7769 68.1159 26.8255 68.1159C27.9452 68.1159 28.6706 67.5167 28.6706 66.5784C28.6706 65.8609 28.2211 65.3562 27.3775 65.1434L26.384 64.891C25.7453 64.7255 25.422 64.3707 25.422 63.8345C25.422 63.1327 25.9976 62.6754 26.865 62.6754C27.6298 62.6754 28.1029 63.0697 28.1817 63.7635H28.576C28.4656 62.8647 27.8269 62.3285 26.865 62.3285C25.7611 62.3285 25.0436 62.9199 25.0436 63.8345ZM36.4748 65.9161C37.5313 65.9161 38.1937 65.1434 38.1937 64.1578C38.1937 63.117 37.5392 62.4231 36.4748 62.4231H34.3853V68.0213H34.7638V65.9161H36.4748ZM36.459 62.77C37.279 62.77 37.8073 63.2983 37.8073 64.142C37.8073 64.9778 37.2869 65.5691 36.4117 65.5691H34.7638V62.77H36.459ZM44.1667 62.4231H43.7882V68.0213H44.1667V62.4231ZM49.6035 62.77H51.3618V68.0213H51.7403V62.77H53.4986V62.4231H49.6035V62.77ZM58.2077 68.0213L58.7912 66.4522H61.5824L62.1738 68.0213H62.5601L60.4628 62.4231H59.903L57.8293 68.0213H58.2077ZM60.1316 62.8252C60.1474 62.7858 60.171 62.7148 60.1789 62.6833C60.1868 62.7227 60.2105 62.7779 60.2262 62.8252L61.4563 66.1053H58.9174L60.1316 62.8252ZM68.4176 62.4231H68.0391V68.0213H71.0826V67.6744H68.4176V62.4231ZM83.8431 62.4231H83.4646V68.0213H83.8431V62.4231ZM90.2892 68.0213V63.046L93.5772 68.0213H93.9556V62.4231H93.5772V67.3826L90.2971 62.4231H89.9107V68.0213H90.2892ZM102.789 65.4824V65.1355H100.408V62.77H103.247V62.4231H100.03V68.0213H100.408V65.4824H102.789ZM113.822 65.2222C113.822 63.527 112.726 62.3285 111.173 62.3285C109.627 62.3285 108.531 63.527 108.531 65.2222C108.531 66.9174 109.619 68.1159 111.173 68.1159C112.726 68.1159 113.822 66.9174 113.822 65.2222ZM113.435 65.2222C113.435 66.7124 112.505 67.7532 111.173 67.7532C109.848 67.7532 108.917 66.7124 108.917 65.2222C108.917 63.732 109.848 62.6912 111.173 62.6912C112.505 62.6912 113.435 63.732 113.435 65.2222ZM119.915 68.0213V65.6007H121.736L122.958 68.0213H123.384L122.13 65.5534C122.879 65.3957 123.337 64.8122 123.337 63.9922C123.337 63.0381 122.666 62.4231 121.602 62.4231H119.536V68.0213H119.915ZM119.915 62.77H121.602C122.422 62.77 122.95 63.2116 122.95 64.008C122.95 64.7807 122.461 65.2537 121.618 65.2537H119.915V62.77ZM129.51 68.0213V64.9541C129.51 64.0316 129.486 63.3772 129.471 63.2195L131.466 68.0213H131.844L133.839 63.1958C133.815 63.5664 133.799 64.0395 133.799 64.9541V68.0213H134.178V62.4231H133.792L131.655 67.564L129.51 62.4231H129.132V68.0213H129.51ZM140.039 68.0213L140.622 66.4522H143.413L144.005 68.0213H144.391L142.294 62.4231H141.734L139.66 68.0213H140.039ZM141.963 62.8252C141.978 62.7858 142.002 62.7148 142.01 62.6833C142.018 62.7227 142.041 62.7779 142.057 62.8252L143.287 66.1053H140.748L141.963 62.8252ZM148.723 62.77H150.482V68.0213H150.86V62.77H152.619V62.4231H148.723V62.77ZM158.435 62.4231H158.056V68.0213H158.435V62.4231ZM169.438 65.2222C169.438 63.527 168.342 62.3285 166.789 62.3285C165.244 62.3285 164.148 63.527 164.148 65.2222C164.148 66.9174 165.236 68.1159 166.789 68.1159C168.342 68.1159 169.438 66.9174 169.438 65.2222ZM169.052 65.2222C169.052 66.7124 168.122 67.7532 166.789 67.7532C165.464 67.7532 164.534 66.7124 164.534 65.2222C164.534 63.732 165.464 62.6912 166.789 62.6912C168.122 62.6912 169.052 63.732 169.052 65.2222ZM175.531 68.0213V63.046L178.819 68.0213H179.198V62.4231H178.819V67.3826L175.539 62.4231H175.153V68.0213H175.531ZM191.787 63.8345C191.787 64.5599 192.236 65.0409 193.08 65.2537L194.05 65.4982C194.712 65.6638 195.035 66.0343 195.035 66.5863C195.035 67.3038 194.46 67.7611 193.569 67.7611C192.733 67.7611 192.157 67.3353 192.126 66.6967H191.724C191.81 67.5719 192.52 68.1159 193.569 68.1159C194.688 68.1159 195.414 67.5167 195.414 66.5784C195.414 65.8609 194.964 65.3562 194.121 65.1434L193.127 64.891C192.489 64.7255 192.165 64.3707 192.165 63.8345C192.165 63.1327 192.741 62.6754 193.608 62.6754C194.373 62.6754 194.846 63.0697 194.925 63.7635H195.319C195.209 62.8647 194.57 62.3285 193.608 62.3285C192.504 62.3285 191.787 62.9199 191.787 63.8345ZM202.244 65.6243V68.0213H202.622V65.6243L204.491 62.4231H204.073L202.591 65.0093C202.481 65.2064 202.504 65.167 202.433 65.3089C202.378 65.1907 202.331 65.1039 202.276 65.0093L200.777 62.4231H200.344L202.244 65.6243ZM209.545 63.8345C209.545 64.5599 209.995 65.0409 210.839 65.2537L211.808 65.4982C212.471 65.6638 212.794 66.0343 212.794 66.5863C212.794 67.3038 212.218 67.7611 211.327 67.7611C210.492 67.7611 209.916 67.3353 209.884 66.6967H209.482C209.569 67.5719 210.279 68.1159 211.327 68.1159C212.447 68.1159 213.172 67.5167 213.172 66.5784C213.172 65.8609 212.723 65.3562 211.879 65.1434L210.886 64.891C210.247 64.7255 209.924 64.3707 209.924 63.8345C209.924 63.1327 210.499 62.6754 211.367 62.6754C212.132 62.6754 212.605 63.0697 212.684 63.7635H213.078C212.967 62.8647 212.329 62.3285 211.367 62.3285C210.263 62.3285 209.545 62.9199 209.545 63.8345ZM218.179 62.77H219.938V68.0213H220.316V62.77H222.074V62.4231H218.179V62.77ZM230.808 68.0213V67.6744H227.891V65.3878H230.54V65.0409H227.891V62.77H230.8V62.4231H227.512V68.0213H230.808ZM237.024 68.0213V64.9541C237.024 64.0316 237.001 63.3772 236.985 63.2195L238.98 68.0213H239.358L241.353 63.1958C241.329 63.5664 241.314 64.0395 241.314 64.9541V68.0213H241.692V62.4231H241.306L239.169 67.564L237.024 62.4231H236.646V68.0213H237.024Z" fill="#494949" />
</svg>